name rise35.5848peak51.9257fall54.8793.mot
datacolumns 19
datarows 33
range 3.24165000000000 3.29498500000000
endheader
time	ground_force1_vx	ground_force1_vy	ground_force1_vz	ground_force1_px	ground_force1_py	ground_force1_pz	ground_force2_vx	ground_force2_vy	ground_force2_vz	ground_force2_px	ground_force2_py	ground_force2_pz	ground_torque1_x	ground_torque1_y	ground_torque1_z	ground_torque2_x	ground_torque2_y	ground_torque2_z	
3.24165000000000	12.71071300000000	706.31472099999996	38.71229800000000	0.21737100000000	0.00000000000000	0.11383100000000	0.00000000000000	0.00000000000000	0.00000000000000	0.00000000000000	0.00000000000000	0.00000000000000	0.00000000000000	14.17951800000000	0.00000000000000	0.00000000000000	0.00000000000000	0.00000000000000	
3.24331400000000	12.25570200000000	707.01127199999996	38.67026800000000	0.21637200000000	0.00000000000000	0.11380200000000	0.00000000000000	0.00000000000000	0.00000000000000	0.00000000000000	0.00000000000000	0.00000000000000	0.00000000000000	14.21196900000000	0.00000000000000	0.00000000000000	0.00000000000000	0.00000000000000	
3.24497900000000	11.78560000000000	707.73051399999997	38.63004600000000	0.21535100000000	0.00000000000000	0.11377500000000	0.00000000000000	0.00000000000000	0.00000000000000	0.00000000000000	0.00000000000000	0.00000000000000	0.00000000000000	14.24787700000000	0.00000000000000	0.00000000000000	0.00000000000000	0.00000000000000	
3.24665400000000	11.30032800000000	708.47149999999999	38.59165900000000	0.21430800000000	0.00000000000000	0.11374900000000	0.00000000000000	0.00000000000000	0.00000000000000	0.00000000000000	0.00000000000000	0.00000000000000	0.00000000000000	14.28724600000000	0.00000000000000	0.00000000000000	0.00000000000000	0.00000000000000	
3.24833000000000	10.79984900000000	709.23337900000001	38.55514500000000	0.21324300000000	0.00000000000000	0.11372400000000	0.00000000000000	0.00000000000000	0.00000000000000	0.00000000000000	0.00000000000000	0.00000000000000	0.00000000000000	14.33007800000000	0.00000000000000	0.00000000000000	0.00000000000000	0.00000000000000	
3.24998500000000	10.28416900000000	710.01539000000002	38.52055200000000	0.21215800000000	0.00000000000000	0.11370100000000	0.00000000000000	0.00000000000000	0.00000000000000	0.00000000000000	0.00000000000000	0.00000000000000	0.00000000000000	14.37637800000000	0.00000000000000	0.00000000000000	0.00000000000000	0.00000000000000	
3.25164700000000	9.75333500000000	710.81686700000000	38.48793900000000	0.21105300000000	0.00000000000000	0.11367800000000	0.00000000000000	0.00000000000000	0.00000000000000	0.00000000000000	0.00000000000000	0.00000000000000	0.00000000000000	14.42614600000000	0.00000000000000	0.00000000000000	0.00000000000000	0.00000000000000	
3.25331500000000	9.20743600000000	711.63723600000003	38.45737200000000	0.20992900000000	0.00000000000000	0.11365700000000	0.00000000000000	0.00000000000000	0.00000000000000	0.00000000000000	0.00000000000000	0.00000000000000	0.00000000000000	14.47938400000000	0.00000000000000	0.00000000000000	0.00000000000000	0.00000000000000	
3.25498200000000	8.64660500000000	712.47601599999996	38.42893000000000	0.20878700000000	0.00000000000000	0.11363700000000	0.00000000000000	0.00000000000000	0.00000000000000	0.00000000000000	0.00000000000000	0.00000000000000	0.00000000000000	14.53608900000000	0.00000000000000	0.00000000000000	0.00000000000000	0.00000000000000	
3.25665000000000	8.07101600000000	713.33281699999998	38.40269800000000	0.20762800000000	0.00000000000000	0.11361900000000	0.00000000000000	0.00000000000000	0.00000000000000	0.00000000000000	0.00000000000000	0.00000000000000	0.00000000000000	14.59625800000000	0.00000000000000	0.00000000000000	0.00000000000000	0.00000000000000	
3.25832700000000	7.48088200000000	714.20733800000005	38.37877000000000	0.20645300000000	0.00000000000000	0.11360100000000	0.00000000000000	0.00000000000000	0.00000000000000	0.00000000000000	0.00000000000000	0.00000000000000	0.00000000000000	14.65988300000000	0.00000000000000	0.00000000000000	0.00000000000000	0.00000000000000	
3.25998000000000	6.87645900000000	715.09936500000003	38.35725000000000	0.20526400000000	0.00000000000000	0.11358500000000	0.00000000000000	0.00000000000000	0.00000000000000	0.00000000000000	0.00000000000000	0.00000000000000	0.00000000000000	14.72695400000000	0.00000000000000	0.00000000000000	0.00000000000000	0.00000000000000	
3.26165000000000	6.25804000000000	716.00877100000002	38.33824800000000	0.20406000000000	0.00000000000000	0.11356900000000	0.00000000000000	0.00000000000000	0.00000000000000	0.00000000000000	0.00000000000000	0.00000000000000	0.00000000000000	14.79745500000000	0.00000000000000	0.00000000000000	0.00000000000000	0.00000000000000	
3.26331400000000	5.62596100000000	716.93550800000003	38.32188300000000	0.20284500000000	0.00000000000000	0.11355500000000	0.00000000000000	0.00000000000000	0.00000000000000	0.00000000000000	0.00000000000000	0.00000000000000	0.00000000000000	14.87136700000000	0.00000000000000	0.00000000000000	0.00000000000000	0.00000000000000	
3.26498600000000	4.98059100000000	717.87960799999996	38.30828200000000	0.20161900000000	0.00000000000000	0.11354100000000	0.00000000000000	0.00000000000000	0.00000000000000	0.00000000000000	0.00000000000000	0.00000000000000	0.00000000000000	14.94866600000000	0.00000000000000	0.00000000000000	0.00000000000000	0.00000000000000	
3.26665400000000	4.32233800000000	718.84117600000002	38.29757600000000	0.20038300000000	0.00000000000000	0.11352900000000	0.00000000000000	0.00000000000000	0.00000000000000	0.00000000000000	0.00000000000000	0.00000000000000	0.00000000000000	15.02932200000000	0.00000000000000	0.00000000000000	0.00000000000000	0.00000000000000	
3.26832100000000	3.65164600000000	719.82038699999998	38.28990500000000	0.19913900000000	0.00000000000000	0.11351700000000	0.00000000000000	0.00000000000000	0.00000000000000	0.00000000000000	0.00000000000000	0.00000000000000	0.00000000000000	15.11330000000000	0.00000000000000	0.00000000000000	0.00000000000000	0.00000000000000	
3.26998600000000	2.96899200000000	720.81748200000004	38.28541400000000	0.19788800000000	0.00000000000000	0.11350700000000	0.00000000000000	0.00000000000000	0.00000000000000	0.00000000000000	0.00000000000000	0.00000000000000	0.00000000000000	15.20055600000000	0.00000000000000	0.00000000000000	0.00000000000000	0.00000000000000	
3.27164900000000	2.27488700000000	721.83276100000000	38.28425500000000	0.19663200000000	0.00000000000000	0.11349700000000	0.00000000000000	0.00000000000000	0.00000000000000	0.00000000000000	0.00000000000000	0.00000000000000	0.00000000000000	15.29104300000000	0.00000000000000	0.00000000000000	0.00000000000000	0.00000000000000	
3.27331300000000	1.56987300000000	722.86657700000001	38.28658300000000	0.19537200000000	0.00000000000000	0.11348700000000	0.00000000000000	0.00000000000000	0.00000000000000	0.00000000000000	0.00000000000000	0.00000000000000	0.00000000000000	15.38470600000000	0.00000000000000	0.00000000000000	0.00000000000000	0.00000000000000	
3.27498100000000	0.85452200000000	723.91933300000005	38.29256000000000	0.19410900000000	0.00000000000000	0.11347900000000	0.00000000000000	0.00000000000000	0.00000000000000	0.00000000000000	0.00000000000000	0.00000000000000	0.00000000000000	15.48148300000000	0.00000000000000	0.00000000000000	0.00000000000000	0.00000000000000	
3.27665000000000	0.12943300000000	724.99147500000004	38.30235200000000	0.19284500000000	0.00000000000000	0.11347100000000	0.00000000000000	0.00000000000000	0.00000000000000	0.00000000000000	0.00000000000000	0.00000000000000	0.00000000000000	15.58130300000000	0.00000000000000	0.00000000000000	0.00000000000000	0.00000000000000	
3.27832700000000	-0.60476700000000	726.08348300000000	38.31612800000000	0.19158100000000	0.00000000000000	0.11346400000000	0.00000000000000	0.00000000000000	0.00000000000000	0.00000000000000	0.00000000000000	0.00000000000000	0.00000000000000	15.68408900000000	0.00000000000000	0.00000000000000	0.00000000000000	0.00000000000000	
3.27999600000000	-1.34742600000000	727.19586800000002	38.33406200000000	0.19031800000000	0.00000000000000	0.11345800000000	0.00000000000000	0.00000000000000	0.00000000000000	0.00000000000000	0.00000000000000	0.00000000000000	0.00000000000000	15.78975600000000	0.00000000000000	0.00000000000000	0.00000000000000	0.00000000000000	
3.28165300000000	-2.09787000000000	728.32916200000000	38.35632900000000	0.18905800000000	0.00000000000000	0.11345200000000	0.00000000000000	0.00000000000000	0.00000000000000	0.00000000000000	0.00000000000000	0.00000000000000	0.00000000000000	15.89821200000000	0.00000000000000	0.00000000000000	0.00000000000000	0.00000000000000	
3.28333000000000	-2.85540400000000	729.48391600000002	38.38310800000000	0.18780200000000	0.00000000000000	0.11344700000000	0.00000000000000	0.00000000000000	0.00000000000000	0.00000000000000	0.00000000000000	0.00000000000000	0.00000000000000	16.00935600000000	0.00000000000000	0.00000000000000	0.00000000000000	0.00000000000000	
3.28498300000000	-3.61931300000000	730.66068600000006	38.41458100000000	0.18655000000000	0.00000000000000	0.11344200000000	0.00000000000000	0.00000000000000	0.00000000000000	0.00000000000000	0.00000000000000	0.00000000000000	0.00000000000000	16.12308000000000	0.00000000000000	0.00000000000000	0.00000000000000	0.00000000000000	
3.28666300000000	-4.38886500000000	731.86003000000005	38.45092900000000	0.18530500000000	0.00000000000000	0.11343800000000	0.00000000000000	0.00000000000000	0.00000000000000	0.00000000000000	0.00000000000000	0.00000000000000	0.00000000000000	16.23926600000000	0.00000000000000	0.00000000000000	0.00000000000000	0.00000000000000	
3.28831500000000	-5.16331300000000	733.08250199999998	38.49233600000000	0.18406600000000	0.00000000000000	0.11343400000000	0.00000000000000	0.00000000000000	0.00000000000000	0.00000000000000	0.00000000000000	0.00000000000000	0.00000000000000	16.35779200000000	0.00000000000000	0.00000000000000	0.00000000000000	0.00000000000000	
3.28999000000000	-5.94189700000000	734.32864099999995	38.53898400000000	0.18283600000000	0.00000000000000	0.11343100000000	0.00000000000000	0.00000000000000	0.00000000000000	0.00000000000000	0.00000000000000	0.00000000000000	0.00000000000000	16.47852600000000	0.00000000000000	0.00000000000000	0.00000000000000	0.00000000000000	
3.29165200000000	-6.72384500000000	735.59896600000002	38.59105800000000	0.18161400000000	0.00000000000000	0.11342800000000	0.00000000000000	0.00000000000000	0.00000000000000	0.00000000000000	0.00000000000000	0.00000000000000	0.00000000000000	16.60132800000000	0.00000000000000	0.00000000000000	0.00000000000000	0.00000000000000	
3.29331700000000	-7.50837700000000	736.89396899999997	38.64873800000000	0.18040200000000	0.00000000000000	0.11342600000000	0.00000000000000	0.00000000000000	0.00000000000000	0.00000000000000	0.00000000000000	0.00000000000000	0.00000000000000	16.72605100000000	0.00000000000000	0.00000000000000	0.00000000000000	0.00000000000000	
3.29498500000000	-8.29470500000000	738.21410700000001	38.71220400000000	0.17920000000000	0.00000000000000	0.11342400000000	0.00000000000000	0.00000000000000	0.00000000000000	0.00000000000000	0.00000000000000	0.00000000000000	0.00000000000000	16.85254300000000	0.00000000000000	0.00000000000000	0.00000000000000	0.00000000000000	
